# xmcd
#
# Track frame offsets:
#	150
#	15630
#	33292
#	48834
#	66312
#	80576
#	97823
#	113659
#	126461
#	143964
#	159277
#	175802
#	194089
#
# Disc length: 2797 seconds
#
# Revision: 0
# Processed by: cddbd v1.5.2PL0 Copyright (c) Steve Scherf et al.
# Submitted via: EasyCDDAExtractor 9.0.2.1
#
DISCID=ab0aeb0d
DTITLE=B-Boys - Version 2
DYEAR=2007
DGENRE=Pop
TTITLE0=My Baby
TTITLE1=Hvis Du Var Min
TTITLE2=Hun Er...
TTITLE3=Os To
TTITLE4=Ung, Fr¾k
TTITLE5=Den Shuffle
TTITLE6=G¿r Mig Fri
TTITLE7=Freak Den
TTITLE8=Bag Facaden
TTITLE9=24-7
TTITLE10=Sejrsrunden
TTITLE11=Bliv Her Hos Mig
TTITLE12=Yndlings
EXTD=
EXTT0=
EXTT1=
EXTT2=
EXTT3=
EXTT4=
EXTT5=
EXTT6=
EXTT7=
EXTT8=
EXTT9=
EXTT10=
EXTT11=
EXTT12=
PLAYORDER=
